
-: Cover :-  


    	http://desibbrg.org/images/25498664126475723813.jpg
-: Screens :-
 

    	http://desibbrg.org/images/44875174670831231202.jpg
    	http://desibbrg.org/images/81804886755274642146.jpg
    	http://desibbrg.org/images/03885585875624488260.jpg
    	http://desibbrg.org/images/58318474278477680149.jpg
    	http://desibbrg.org/images/72370561490958284776.jpg
    	http://desibbrg.org/images/60367786137697117011.jpg
    	http://desibbrg.org/images/37950798625991726544.jpg
    	http://desibbrg.org/images/52073137305873489102.jpg
    	http://desibbrg.org/images/31757064313792018399.jpg
    	http://desibbrg.org/images/50976227001766670858.jpg
    	http://desibbrg.org/images/66658612057205547705.jpg
    	http://desibbrg.org/images/90038856508129648301.jpg
    	http://desibbrg.org/images/81095010931020076155.jpg

    	http://desibbrg.org/images/20008324398789664008.jpg
    



-: Info :-  


Format                           : MP4 Video
File size                        : 628 MiB
Duration                         : 1h 46mn
Overall bit rate                 : 828 Kbps


Video
Format                           : AVC
Format/Info                      : Advanced Video Codec
Format profile                   : Main@L3.1
Format settings, CABAC           : Yes
Format settings, ReFrames        : 3 frames
Muxing mode                      : Container profile=Unknown@3.1
Duration                         : 1h 46mn
Bit rate                         : 690 Kbps
Width                            : 854 pixels
Height                           : 470 pixels
Display aspect ratio             : 16:9
Frame rate mode                  : Constant
Frame rate                       : 29.970 fps
Color space                      : YUV
Chroma subsampling               : 4:2:0
Bit depth                        : 8 bits
Scan type                        : Progressive
Bits/(Pixel*Frame)               : 0.057
Stream size                      : 523 MiB (83%)

Audio
Format                           : AAC
Format/Info                      : Advanced Audio Codec
Format version                   : Version 4
Format profile                   : LC
Format settings, SBR             : No
Duration                         : 1h 46mn
Bit rate                         : 129 Kbps
Channel(s)                       : 2 channels
Channel positions                : Front: L R
Sampling rate                    : 44.1 KHz
Bit depth                        : 16 bits
Stream size                      : 97.6 MiB (16%)



 
http://www.imdb.com/title/tt0246456/



    Release Date
    1 Jan 1982

    Genre
    Family Drama

    Producer
    B Chopra
    Vijay Talwar

    Star Cast
    Naseeruddin Shah.... Salim
    Supriya Pathak.... Shabnam
    Smita Patil.... Najma
    Farooq Sheikh.... Sajju
    Bharat Kapoor.... Akhtar Hussain
    Javed Khan
    Yunus Parvez.... Shabnam's dad
    Rita Rani Kaul
    Malika
    Shaukat Azmi
    B L Chopra
    Sulbha Deshpande.... Shabnam's mom
    Nisha Singh.... Nasreen

    Story / Writers
    Sagar Sarhadi



Najma and Salim are in love, but their's is a platonic relationship, as Salim is a deep thinker and prefers that women like Najma be financially independent, and not be dependent on men. On the other hand, Sarju and Shabnam are in love, and would like to get married, however, Shabnam's dad has finalized her marriage with a much older man, who is wealthy, and has shown an interest in Shabnam. An engagement ceremoney takes place with this older gentleman, and Shabnam. Sarju, though devastated, must now attempt to convince Shabnam's dad, as well as Shabnam's future husband, to change their respective minds, and let him marry Shabnam, with results that will change their lives forever. 
